<?xml version="1.0" encoding="UTF-8"?>
<!DOCTYPE svg PUBLIC "-//W3C//DTD SVG 1.1//EN" "http://www.w3.org/Graphics/SVG/1.1/DTD/svg11.dtd">
<svg version="1.1" xmlns="http://www.w3.org/2000/svg" xmlns:xlink="http://www.w3.org/1999/xlink" x="0" y="0" width="16" height="16" viewBox="0, 0, 16, 16">
    <path d="M7.15,2 C6.951,2 6.8,2.151 6.8,2.35 L6.8,3.35 C6.357,3.464 5.959,3.648 5.575,3.875 L4.85,3.15 C4.709,3.01 4.49,3.01 4.35,3.15 L3.15,4.35 C3.009,4.491 3.009,4.71 3.15,4.85 L3.875,5.575 C3.647,5.959 3.464,6.357 3.35,6.8 L2.35,6.8 C2.151,6.8 2,6.951 2,7.15 L2,8.85 C2,9.049 2.151,9.2 2.35,9.2 L3.35,9.2 C3.464,9.643 3.647,10.041 3.875,10.425 L3.15,11.151 C3.009,11.291 3.009,11.51 3.15,11.651 L4.35,12.851 C4.49,12.991 4.709,12.991 4.85,12.851 L5.575,12.125 C5.959,12.353 6.357,12.536 6.8,12.65 L6.8,13.65 C6.8,13.849 6.951,14 7.15,14 L8.85,14 C9.048,14 9.2,13.849 9.2,13.65 L9.2,12.65 C9.643,12.536 10.041,12.352 10.425,12.125 L11.15,12.85 C11.29,12.99 11.509,12.99 11.65,12.85 L12.85,11.65 C12.99,11.509 12.99,11.29 12.85,11.15 L12.125,10.425 C12.353,10.041 12.536,9.643 12.65,9.2 L13.65,9.2 C13.849,9.2 14,9.049 14,8.85 L14,7.15 C14,6.951 13.849,6.8 13.65,6.8 L12.65,6.8 C12.536,6.357 12.353,5.959 12.125,5.575 L12.85,4.85 C12.99,4.709 12.99,4.49 12.85,4.35 L11.65,3.15 C11.509,3.009 11.29,3.009 11.15,3.15 L10.425,3.875 C10.041,3.647 9.643,3.464 9.2,3.35 L9.2,2.35 C9.2,2.151 9.049,2 8.85,2 z M8,5.326 C9.476,5.326 10.674,6.524 10.674,8 C10.674,9.476 9.476,10.674 8,10.674 C6.524,10.674 5.326,9.476 5.326,8 C5.326,6.524 6.524,5.326 8,5.326 z" fill="#969696"/>
</svg>
