<?xml version="1.0" encoding="UTF-8" standalone="no"?>
<svg
   xmlns:dc="http://purl.org/dc/elements/1.1/"
   xmlns:cc="http://creativecommons.org/ns#"
   xmlns:rdf="http://www.w3.org/1999/02/22-rdf-syntax-ns#"
   xmlns:svg="http://www.w3.org/2000/svg"
   xmlns="http://www.w3.org/2000/svg"
   xmlns:sodipodi="http://sodipodi.sourceforge.net/DTD/sodipodi-0.dtd"
   xmlns:inkscape="http://www.inkscape.org/namespaces/inkscape"
   width="33"
   height="23"
   viewBox="0 0 33 23"
   fill="none"
   version="1.1"
   id="svg6"
   sodipodi:docname="Create Folder.svg"
   inkscape:version="0.92.2 5c3e80d, 2017-08-06">
  <metadata
     id="metadata12">
    <rdf:RDF>
      <cc:Work
         rdf:about="">
        <dc:format>image/svg+xml</dc:format>
        <dc:type
           rdf:resource="http://purl.org/dc/dcmitype/StillImage" />
      </cc:Work>
    </rdf:RDF>
  </metadata>
  <defs
     id="defs10" />
  <sodipodi:namedview
     pagecolor="#ffffff"
     bordercolor="#666666"
     borderopacity="1"
     objecttolerance="10"
     gridtolerance="10"
     guidetolerance="10"
     inkscape:pageopacity="0"
     inkscape:pageshadow="2"
     inkscape:window-width="1280"
     inkscape:window-height="756"
     id="namedview8"
     showgrid="false"
     inkscape:zoom="8.7272727"
     inkscape:cx="16.5"
     inkscape:cy="11.5"
     inkscape:window-x="0"
     inkscape:window-y="1"
     inkscape:window-maximized="1"
     inkscape:current-layer="svg6" />
  <path
     id="path4"
     style="clip-rule:evenodd;fill:#007aff;fill-rule:evenodd"
     d="m 29.35,8.149 c -1.066667,0 -2.133333,0 -3.2,0 -0.03063,1.1498411 0.06346,2.312118 -0.05108,3.453594 -0.861862,1.107128 -1.474228,-0.399353 -1.248922,-1.218979 0,-0.7448716 0,-1.4897433 0,-2.234615 C 23.700353,8.118361 22.538247,8.212457 21.396982,8.097938 20.290958,7.2365792 21.795892,6.6234256 22.615385,6.849 c 0.744872,0 1.489743,0 2.234615,0 0.03066,-1.1494466 -0.0635,-2.311395 0.05108,-3.4524375 0.861837,-1.1050515 1.474378,0.3984734 1.248922,1.2178224 0,0.7448717 0,1.4897434 0,2.2346151 1.149643,0.030658 2.311762,-0.063495 3.453016,0.051094 C 30.248883,7.1465623 30.042011,8.1737692 29.35,8.149 Z M 25.5,0 c -3.729228,-0.08556117 -7.163223,3.0158747 -7.461277,6.7330261 -0.454677,3.6420789 2.178833,7.3198389 5.76754,8.0748639 3.50141,0.886748 7.41509,-1.175688 8.673495,-4.558297 C 33.872099,6.9124247 32.404243,2.7299767 29.233117,0.99347638 28.104425,0.34195961 26.802956,-0.00259692 25.5,0 Z m 0.214,21.167 c -0.158217,0.896736 -1.221173,0.536681 -1.866731,0.611 -7.300756,0 -14.6015127,0 -21.902269,0 -0.9437053,-0.09338 -0.593259,-1.174001 -0.66,-1.817731 0,-3.67209 0,-7.344179 0,-11.016269 0.1582171,-0.8967358 1.2211732,-0.5366814 1.8667312,-0.611 4.7020896,0 9.4041788,0 14.1062688,0 0.132072,-0.9630746 -0.06094,-1.4396484 -1.060834,-1.222 -4.970722,0 -9.9414439,0 -14.912166,0 C 1.317823,5.6076563 1.2187568,4.0904652 1.3355469,2.5959375 1.8025129,1.9629884 2.6946314,2.3148132 3.3760774,2.223 4.964744,2.2381614 6.5575618,2.1927067 8.1436406,2.2456563 8.7613412,2.6265095 8.9071065,3.4555183 9.3014597,4.0442537 9.4737383,4.736922 10.20754,4.6998478 10.779487,4.667 c 2.325171,0 4.650342,0 6.975513,0 0.359229,-0.768137 0.870274,-1.4736044 -0.309936,-1.223 -2.342021,0 -4.684043,0 -7.026064,0 C 9.8807814,3.188133 9.7922703,2.4456575 9.4640343,1.9670027 9.2585005,1.4207104 8.8997428,0.82943523 8.2197563,1 5.9936519,1.0237568 3.7617876,0.95178205 1.5393848,1.0372539 0.42556593,1.2039566 -0.15566396,2.3574356 0,3.3961412 0.00661904,9.3821258 -0.01324841,15.368813 0.0099519,21.354358 0.11424544,22.564127 1.4010185,23.155957 2.4911412,23 10.083409,22.9937 17.676281,23.01261 25.26817,22.9905 26.418594,22.9276 27.175379,21.772717 27,20.684275 c 0,-1.657436 0,-3.314872 0,-4.972308 -0.88106,0.0098 -1.548255,0.08431 -1.286,1.096385 0,1.452872 0,2.905743 0,4.358615 z" />
</svg>
